<mxfile host="Electron" modified="2023-10-17T05:21:38.197Z" agent="Mozilla/5.0 (Windows NT 10.0; Win64; x64) AppleWebKit/537.36 (KHTML, like Gecko) draw.io/22.0.2 Chrome/114.0.5735.289 Electron/25.8.4 Safari/537.36" etag="5PCbZM1UcaId594bGBIl" version="22.0.2" type="device">
  <diagram name="1 oldal" id="9_CFz6xs1quLUDm8gW07">
    <mxGraphModel dx="1434" dy="844" grid="1" gridSize="10" guides="1" tooltips="1" connect="1" arrows="1" fold="1" page="1" pageScale="1" pageWidth="827" pageHeight="1169" math="0" shadow="0">
      <root>
        <mxCell id="0" />
        <mxCell id="1" parent="0" />
        <mxCell id="IvCPL0VLkoYU5I1dA0V2-1" value="" style="strokeWidth=1;shadow=0;dashed=0;align=center;html=1;shape=mxgraph.mockup.containers.browserWindow;rSize=0;strokeColor=#666666;strokeColor2=#008cff;strokeColor3=#c4c4c4;mainText=,;recursiveResize=0;" parent="1" vertex="1">
          <mxGeometry x="130" y="60" width="1400" height="740" as="geometry" />
        </mxCell>
        <mxCell id="IvCPL0VLkoYU5I1dA0V2-2" value="Page 1" style="strokeWidth=1;shadow=0;dashed=0;align=center;html=1;shape=mxgraph.mockup.containers.anchor;fontSize=17;fontColor=#666666;align=left;whiteSpace=wrap;" parent="IvCPL0VLkoYU5I1dA0V2-1" vertex="1">
          <mxGeometry x="60" y="12" width="110" height="26" as="geometry" />
        </mxCell>
        <mxCell id="IvCPL0VLkoYU5I1dA0V2-3" value="https://www.draw.io" style="strokeWidth=1;shadow=0;dashed=0;align=center;html=1;shape=mxgraph.mockup.containers.anchor;rSize=0;fontSize=17;fontColor=#666666;align=left;" parent="IvCPL0VLkoYU5I1dA0V2-1" vertex="1">
          <mxGeometry x="130" y="60" width="250" height="26" as="geometry" />
        </mxCell>
        <mxCell id="IvCPL0VLkoYU5I1dA0V2-5" value="" style="shape=image;html=1;verticalAlign=top;verticalLabelPosition=bottom;labelBackgroundColor=#ffffff;imageAspect=0;aspect=fixed;image=https://cdn0.iconfinder.com/data/icons/kameleon-free-pack-rounded/110/Gold-Cart-128.png" parent="IvCPL0VLkoYU5I1dA0V2-1" vertex="1">
          <mxGeometry x="636" y="252" width="128" height="128" as="geometry" />
        </mxCell>
        <mxCell id="H3CjgF7mUc-mE-nzHEZ1-1" value="100 000M&lt;br&gt;&amp;nbsp;arany" style="text;html=1;strokeColor=none;fillColor=none;align=center;verticalAlign=middle;whiteSpace=wrap;rounded=0;fontStyle=1;fontSize=42;" parent="IvCPL0VLkoYU5I1dA0V2-1" vertex="1">
          <mxGeometry x="535" y="390" width="330" height="140" as="geometry" />
        </mxCell>
        <mxCell id="H3CjgF7mUc-mE-nzHEZ1-3" value="&lt;font style=&quot;font-size: 42px; font-weight: normal;&quot;&gt;123 456 789 mp&lt;/font&gt;" style="text;html=1;strokeColor=none;fillColor=none;align=center;verticalAlign=middle;whiteSpace=wrap;rounded=0;fontSize=30;fontStyle=1" parent="IvCPL0VLkoYU5I1dA0V2-1" vertex="1">
          <mxGeometry x="445" y="160" width="510" height="30" as="geometry" />
        </mxCell>
        <mxCell id="_f1k0uEWrNO9JQG6IIzU-1" value="Icon" style="icon;html=1;image=img/clipart/Gear_128x128.png" vertex="1" parent="IvCPL0VLkoYU5I1dA0V2-1">
          <mxGeometry x="880" y="165" width="60" height="60" as="geometry" />
        </mxCell>
        <mxCell id="_f1k0uEWrNO9JQG6IIzU-2" value="&lt;p style=&quot;line-height: 100%;&quot;&gt;db: 999&lt;br style=&quot;font-size: 22px;&quot;&gt;ár: 125k&lt;br style=&quot;font-size: 22px;&quot;&gt;&lt;/p&gt;" style="text;strokeColor=none;fillColor=none;align=center;verticalAlign=middle;rounded=0;fontSize=22;fontStyle=0;spacingLeft=0;html=1;horizontal=1;" vertex="1" parent="IvCPL0VLkoYU5I1dA0V2-1">
          <mxGeometry x="955" y="170" width="100" height="50" as="geometry" />
        </mxCell>
        <mxCell id="_f1k0uEWrNO9JQG6IIzU-20" value="&lt;p style=&quot;line-height: 100%;&quot;&gt;&lt;/p&gt;&lt;div style=&quot;text-align: left;&quot;&gt;&lt;span style=&quot;background-color: initial;&quot;&gt;&lt;b&gt;erőforrás neve (999k arany / mp)&lt;/b&gt;&lt;/span&gt;&lt;/div&gt;&lt;div style=&quot;text-align: left;&quot;&gt;&lt;span style=&quot;background-color: initial;&quot;&gt;erőforrás leírása&lt;/span&gt;&lt;/div&gt;&lt;p&gt;&lt;/p&gt;" style="text;strokeColor=none;fillColor=none;align=center;verticalAlign=middle;rounded=0;fontSize=22;fontStyle=0;spacingLeft=0;html=1;horizontal=1;" vertex="1" parent="IvCPL0VLkoYU5I1dA0V2-1">
          <mxGeometry x="1090" y="170" width="280" height="50" as="geometry" />
        </mxCell>
        <mxCell id="_f1k0uEWrNO9JQG6IIzU-24" value="Icon" style="icon;html=1;image=img/clipart/Gear_128x128.png" vertex="1" parent="IvCPL0VLkoYU5I1dA0V2-1">
          <mxGeometry x="880" y="240" width="60" height="60" as="geometry" />
        </mxCell>
        <mxCell id="_f1k0uEWrNO9JQG6IIzU-25" value="&lt;p style=&quot;line-height: 100%;&quot;&gt;db: 999&lt;br style=&quot;font-size: 22px;&quot;&gt;ár: 125k&lt;br style=&quot;font-size: 22px;&quot;&gt;&lt;/p&gt;" style="text;strokeColor=none;fillColor=none;align=center;verticalAlign=middle;rounded=0;fontSize=22;fontStyle=0;spacingLeft=0;html=1;horizontal=1;" vertex="1" parent="IvCPL0VLkoYU5I1dA0V2-1">
          <mxGeometry x="955" y="245" width="100" height="50" as="geometry" />
        </mxCell>
        <mxCell id="_f1k0uEWrNO9JQG6IIzU-26" value="&lt;p style=&quot;line-height: 100%;&quot;&gt;&lt;/p&gt;&lt;div style=&quot;text-align: left;&quot;&gt;&lt;span style=&quot;background-color: initial;&quot;&gt;&lt;b&gt;erőforrás neve (999k arany / mp)&lt;/b&gt;&lt;/span&gt;&lt;/div&gt;&lt;div style=&quot;text-align: left;&quot;&gt;&lt;span style=&quot;background-color: initial;&quot;&gt;erőforrás leírása&lt;/span&gt;&lt;/div&gt;&lt;p&gt;&lt;/p&gt;" style="text;strokeColor=none;fillColor=none;align=center;verticalAlign=middle;rounded=0;fontSize=22;fontStyle=0;spacingLeft=0;html=1;horizontal=1;" vertex="1" parent="IvCPL0VLkoYU5I1dA0V2-1">
          <mxGeometry x="1090" y="245" width="280" height="50" as="geometry" />
        </mxCell>
        <mxCell id="_f1k0uEWrNO9JQG6IIzU-27" value="Icon" style="icon;html=1;image=img/clipart/Gear_128x128.png" vertex="1" parent="IvCPL0VLkoYU5I1dA0V2-1">
          <mxGeometry x="880" y="320" width="60" height="60" as="geometry" />
        </mxCell>
        <mxCell id="_f1k0uEWrNO9JQG6IIzU-28" value="&lt;p style=&quot;line-height: 100%;&quot;&gt;db: 999&lt;br style=&quot;font-size: 22px;&quot;&gt;ár: 125k&lt;br style=&quot;font-size: 22px;&quot;&gt;&lt;/p&gt;" style="text;strokeColor=none;fillColor=none;align=center;verticalAlign=middle;rounded=0;fontSize=22;fontStyle=0;spacingLeft=0;html=1;horizontal=1;" vertex="1" parent="IvCPL0VLkoYU5I1dA0V2-1">
          <mxGeometry x="955" y="325" width="100" height="50" as="geometry" />
        </mxCell>
        <mxCell id="_f1k0uEWrNO9JQG6IIzU-29" value="&lt;p style=&quot;line-height: 100%;&quot;&gt;&lt;/p&gt;&lt;div style=&quot;text-align: left;&quot;&gt;&lt;span style=&quot;background-color: initial;&quot;&gt;&lt;b&gt;erőforrás neve (999k arany / mp)&lt;/b&gt;&lt;/span&gt;&lt;/div&gt;&lt;div style=&quot;text-align: left;&quot;&gt;&lt;span style=&quot;background-color: initial;&quot;&gt;erőforrás leírása&lt;/span&gt;&lt;/div&gt;&lt;p&gt;&lt;/p&gt;" style="text;strokeColor=none;fillColor=none;align=center;verticalAlign=middle;rounded=0;fontSize=22;fontStyle=0;spacingLeft=0;html=1;horizontal=1;" vertex="1" parent="IvCPL0VLkoYU5I1dA0V2-1">
          <mxGeometry x="1090" y="325" width="280" height="50" as="geometry" />
        </mxCell>
        <mxCell id="_f1k0uEWrNO9JQG6IIzU-30" value="Icon" style="icon;html=1;image=img/clipart/Gear_128x128.png" vertex="1" parent="IvCPL0VLkoYU5I1dA0V2-1">
          <mxGeometry x="880" y="395" width="60" height="60" as="geometry" />
        </mxCell>
        <mxCell id="_f1k0uEWrNO9JQG6IIzU-31" value="&lt;p style=&quot;line-height: 100%;&quot;&gt;db: 999&lt;br style=&quot;font-size: 22px;&quot;&gt;ár: 125k&lt;br style=&quot;font-size: 22px;&quot;&gt;&lt;/p&gt;" style="text;strokeColor=none;fillColor=none;align=center;verticalAlign=middle;rounded=0;fontSize=22;fontStyle=0;spacingLeft=0;html=1;horizontal=1;" vertex="1" parent="IvCPL0VLkoYU5I1dA0V2-1">
          <mxGeometry x="955" y="400" width="100" height="50" as="geometry" />
        </mxCell>
        <mxCell id="_f1k0uEWrNO9JQG6IIzU-32" value="&lt;p style=&quot;line-height: 100%;&quot;&gt;&lt;/p&gt;&lt;div style=&quot;text-align: left;&quot;&gt;&lt;span style=&quot;background-color: initial;&quot;&gt;&lt;b&gt;erőforrás neve (999k arany / mp)&lt;/b&gt;&lt;/span&gt;&lt;/div&gt;&lt;div style=&quot;text-align: left;&quot;&gt;&lt;span style=&quot;background-color: initial;&quot;&gt;erőforrás leírása&lt;/span&gt;&lt;/div&gt;&lt;p&gt;&lt;/p&gt;" style="text;strokeColor=none;fillColor=none;align=center;verticalAlign=middle;rounded=0;fontSize=22;fontStyle=0;spacingLeft=0;html=1;horizontal=1;" vertex="1" parent="IvCPL0VLkoYU5I1dA0V2-1">
          <mxGeometry x="1090" y="400" width="280" height="50" as="geometry" />
        </mxCell>
        <mxCell id="_f1k0uEWrNO9JQG6IIzU-33" value="Icon" style="icon;html=1;image=img/clipart/Gear_128x128.png" vertex="1" parent="IvCPL0VLkoYU5I1dA0V2-1">
          <mxGeometry x="880" y="470" width="60" height="60" as="geometry" />
        </mxCell>
        <mxCell id="_f1k0uEWrNO9JQG6IIzU-34" value="&lt;p style=&quot;line-height: 100%;&quot;&gt;db: 0&lt;br style=&quot;font-size: 22px;&quot;&gt;ár: ???&lt;br style=&quot;font-size: 22px;&quot;&gt;&lt;/p&gt;" style="text;strokeColor=none;fillColor=none;align=center;verticalAlign=middle;rounded=0;fontSize=22;fontStyle=0;spacingLeft=0;html=1;horizontal=1;" vertex="1" parent="IvCPL0VLkoYU5I1dA0V2-1">
          <mxGeometry x="955" y="475" width="100" height="50" as="geometry" />
        </mxCell>
        <mxCell id="_f1k0uEWrNO9JQG6IIzU-35" value="&lt;p style=&quot;line-height: 100%;&quot;&gt;&lt;/p&gt;&lt;div style=&quot;&quot;&gt;&lt;span style=&quot;background-color: initial;&quot;&gt;&lt;b&gt;???&lt;/b&gt;&lt;/span&gt;&lt;/div&gt;&lt;div style=&quot;&quot;&gt;&lt;span style=&quot;background-color: initial;&quot;&gt;???&lt;/span&gt;&lt;/div&gt;&lt;p&gt;&lt;/p&gt;" style="text;strokeColor=none;fillColor=none;align=left;verticalAlign=middle;rounded=0;fontSize=22;fontStyle=0;spacingLeft=0;html=1;horizontal=1;" vertex="1" parent="IvCPL0VLkoYU5I1dA0V2-1">
          <mxGeometry x="1090" y="475" width="280" height="50" as="geometry" />
        </mxCell>
        <mxCell id="_f1k0uEWrNO9JQG6IIzU-36" value="Icon" style="icon;html=1;image=img/clipart/Gear_128x128.png" vertex="1" parent="IvCPL0VLkoYU5I1dA0V2-1">
          <mxGeometry x="880" y="545" width="60" height="60" as="geometry" />
        </mxCell>
        <mxCell id="_f1k0uEWrNO9JQG6IIzU-39" value="&lt;p style=&quot;line-height: 100%;&quot;&gt;db: 0&lt;br style=&quot;font-size: 22px;&quot;&gt;ár: ???&lt;br style=&quot;font-size: 22px;&quot;&gt;&lt;/p&gt;" style="text;strokeColor=none;fillColor=none;align=center;verticalAlign=middle;rounded=0;fontSize=22;fontStyle=0;spacingLeft=0;html=1;horizontal=1;" vertex="1" parent="IvCPL0VLkoYU5I1dA0V2-1">
          <mxGeometry x="955" y="555" width="100" height="50" as="geometry" />
        </mxCell>
        <mxCell id="_f1k0uEWrNO9JQG6IIzU-40" value="&lt;p style=&quot;line-height: 100%;&quot;&gt;&lt;/p&gt;&lt;div style=&quot;&quot;&gt;&lt;span style=&quot;background-color: initial;&quot;&gt;&lt;b&gt;???&lt;/b&gt;&lt;/span&gt;&lt;/div&gt;&lt;div style=&quot;&quot;&gt;&lt;span style=&quot;background-color: initial;&quot;&gt;???&lt;/span&gt;&lt;/div&gt;&lt;p&gt;&lt;/p&gt;" style="text;strokeColor=none;fillColor=none;align=left;verticalAlign=middle;rounded=0;fontSize=22;fontStyle=0;spacingLeft=0;html=1;horizontal=1;" vertex="1" parent="IvCPL0VLkoYU5I1dA0V2-1">
          <mxGeometry x="1090" y="555" width="280" height="50" as="geometry" />
        </mxCell>
        <mxCell id="_f1k0uEWrNO9JQG6IIzU-41" value="Icon" style="icon;html=1;image=img/clipart/Gear_128x128.png" vertex="1" parent="IvCPL0VLkoYU5I1dA0V2-1">
          <mxGeometry x="475" y="165" width="60" height="60" as="geometry" />
        </mxCell>
        <mxCell id="_f1k0uEWrNO9JQG6IIzU-42" value="Icon" style="icon;html=1;image=img/clipart/Gear_128x128.png" vertex="1" parent="IvCPL0VLkoYU5I1dA0V2-1">
          <mxGeometry x="475" y="240" width="60" height="60" as="geometry" />
        </mxCell>
        <mxCell id="_f1k0uEWrNO9JQG6IIzU-43" value="Icon" style="icon;html=1;image=img/clipart/Gear_128x128.png" vertex="1" parent="IvCPL0VLkoYU5I1dA0V2-1">
          <mxGeometry x="475" y="320" width="60" height="60" as="geometry" />
        </mxCell>
        <mxCell id="_f1k0uEWrNO9JQG6IIzU-44" value="Icon" style="icon;html=1;image=img/clipart/Gear_128x128.png" vertex="1" parent="IvCPL0VLkoYU5I1dA0V2-1">
          <mxGeometry x="475" y="395" width="60" height="60" as="geometry" />
        </mxCell>
        <mxCell id="_f1k0uEWrNO9JQG6IIzU-45" value="Icon" style="icon;html=1;image=img/clipart/Gear_128x128.png" vertex="1" parent="IvCPL0VLkoYU5I1dA0V2-1">
          <mxGeometry x="475" y="470" width="60" height="60" as="geometry" />
        </mxCell>
        <mxCell id="_f1k0uEWrNO9JQG6IIzU-46" value="Icon" style="icon;html=1;image=img/clipart/Gear_128x128.png" vertex="1" parent="IvCPL0VLkoYU5I1dA0V2-1">
          <mxGeometry x="475" y="545" width="60" height="60" as="geometry" />
        </mxCell>
        <mxCell id="_f1k0uEWrNO9JQG6IIzU-49" value="&lt;p style=&quot;line-height: 100%;&quot;&gt;db: 999&lt;br style=&quot;font-size: 22px;&quot;&gt;ár: 125k&lt;br style=&quot;font-size: 22px;&quot;&gt;&lt;/p&gt;" style="text;strokeColor=none;fillColor=none;align=right;verticalAlign=middle;rounded=0;fontSize=22;fontStyle=0;spacingLeft=0;html=1;horizontal=1;" vertex="1" parent="IvCPL0VLkoYU5I1dA0V2-1">
          <mxGeometry x="365" y="170" width="100" height="50" as="geometry" />
        </mxCell>
        <mxCell id="_f1k0uEWrNO9JQG6IIzU-50" value="&lt;p style=&quot;line-height: 100%;&quot;&gt;db: 999&lt;br style=&quot;font-size: 22px;&quot;&gt;ár: 125k&lt;br style=&quot;font-size: 22px;&quot;&gt;&lt;/p&gt;" style="text;strokeColor=none;fillColor=none;align=right;verticalAlign=middle;rounded=0;fontSize=22;fontStyle=0;spacingLeft=0;html=1;horizontal=1;" vertex="1" parent="IvCPL0VLkoYU5I1dA0V2-1">
          <mxGeometry x="365" y="245" width="100" height="50" as="geometry" />
        </mxCell>
        <mxCell id="_f1k0uEWrNO9JQG6IIzU-51" value="&lt;p style=&quot;line-height: 100%;&quot;&gt;db: 999&lt;br style=&quot;font-size: 22px;&quot;&gt;ár: 125k&lt;br style=&quot;font-size: 22px;&quot;&gt;&lt;/p&gt;" style="text;strokeColor=none;fillColor=none;align=right;verticalAlign=middle;rounded=0;fontSize=22;fontStyle=0;spacingLeft=0;html=1;horizontal=1;" vertex="1" parent="IvCPL0VLkoYU5I1dA0V2-1">
          <mxGeometry x="365" y="325" width="100" height="50" as="geometry" />
        </mxCell>
        <mxCell id="_f1k0uEWrNO9JQG6IIzU-52" value="&lt;p style=&quot;line-height: 100%;&quot;&gt;db: 999&lt;br style=&quot;font-size: 22px;&quot;&gt;ár: 125k&lt;br style=&quot;font-size: 22px;&quot;&gt;&lt;/p&gt;" style="text;strokeColor=none;fillColor=none;align=right;verticalAlign=middle;rounded=0;fontSize=22;fontStyle=0;spacingLeft=0;html=1;horizontal=1;" vertex="1" parent="IvCPL0VLkoYU5I1dA0V2-1">
          <mxGeometry x="365" y="400" width="100" height="50" as="geometry" />
        </mxCell>
        <mxCell id="_f1k0uEWrNO9JQG6IIzU-53" value="&lt;p style=&quot;line-height: 100%;&quot;&gt;db: 0&lt;br style=&quot;font-size: 22px;&quot;&gt;ár: ???&lt;br style=&quot;font-size: 22px;&quot;&gt;&lt;/p&gt;" style="text;strokeColor=none;fillColor=none;align=right;verticalAlign=middle;rounded=0;fontSize=22;fontStyle=0;spacingLeft=0;html=1;horizontal=1;" vertex="1" parent="IvCPL0VLkoYU5I1dA0V2-1">
          <mxGeometry x="365" y="475" width="100" height="50" as="geometry" />
        </mxCell>
        <mxCell id="_f1k0uEWrNO9JQG6IIzU-54" value="&lt;p style=&quot;line-height: 100%;&quot;&gt;db: 0&lt;br style=&quot;font-size: 22px;&quot;&gt;ár: ???&lt;br style=&quot;font-size: 22px;&quot;&gt;&lt;/p&gt;" style="text;strokeColor=none;fillColor=none;align=right;verticalAlign=middle;rounded=0;fontSize=22;fontStyle=0;spacingLeft=0;html=1;horizontal=1;" vertex="1" parent="IvCPL0VLkoYU5I1dA0V2-1">
          <mxGeometry x="365" y="555" width="100" height="50" as="geometry" />
        </mxCell>
        <mxCell id="_f1k0uEWrNO9JQG6IIzU-55" value="&lt;p style=&quot;line-height: 100%;&quot;&gt;&lt;/p&gt;&lt;div style=&quot;&quot;&gt;&lt;span style=&quot;background-color: initial;&quot;&gt;&lt;b&gt;erőforrás neve (999k arany / s)&lt;/b&gt;&lt;/span&gt;&lt;/div&gt;&lt;div style=&quot;&quot;&gt;&lt;span style=&quot;background-color: initial;&quot;&gt;erőforrás leírása&lt;/span&gt;&lt;/div&gt;&lt;p&gt;&lt;/p&gt;" style="text;strokeColor=none;fillColor=none;align=right;verticalAlign=middle;rounded=0;fontSize=22;fontStyle=0;spacingLeft=0;html=1;horizontal=1;" vertex="1" parent="IvCPL0VLkoYU5I1dA0V2-1">
          <mxGeometry x="45" y="175" width="280" height="50" as="geometry" />
        </mxCell>
        <mxCell id="_f1k0uEWrNO9JQG6IIzU-56" value="&lt;p style=&quot;line-height: 100%;&quot;&gt;&lt;/p&gt;&lt;div style=&quot;&quot;&gt;&lt;span style=&quot;background-color: initial;&quot;&gt;&lt;b&gt;erőforrás neve (999k arany / s)&lt;/b&gt;&lt;/span&gt;&lt;/div&gt;&lt;div style=&quot;&quot;&gt;&lt;span style=&quot;background-color: initial;&quot;&gt;erőforrás leírása&lt;/span&gt;&lt;/div&gt;&lt;p&gt;&lt;/p&gt;" style="text;strokeColor=none;fillColor=none;align=right;verticalAlign=middle;rounded=0;fontSize=22;fontStyle=0;spacingLeft=0;html=1;horizontal=1;" vertex="1" parent="IvCPL0VLkoYU5I1dA0V2-1">
          <mxGeometry x="45" y="250" width="280" height="50" as="geometry" />
        </mxCell>
        <mxCell id="_f1k0uEWrNO9JQG6IIzU-57" value="&lt;p style=&quot;line-height: 100%;&quot;&gt;&lt;/p&gt;&lt;div style=&quot;&quot;&gt;&lt;span style=&quot;background-color: initial;&quot;&gt;&lt;b&gt;erőforrás neve (999k arany / s)&lt;/b&gt;&lt;/span&gt;&lt;/div&gt;&lt;div style=&quot;&quot;&gt;&lt;span style=&quot;background-color: initial;&quot;&gt;erőforrás leírása&lt;/span&gt;&lt;/div&gt;&lt;p&gt;&lt;/p&gt;" style="text;strokeColor=none;fillColor=none;align=right;verticalAlign=middle;rounded=0;fontSize=22;fontStyle=0;spacingLeft=0;html=1;horizontal=1;" vertex="1" parent="IvCPL0VLkoYU5I1dA0V2-1">
          <mxGeometry x="45" y="330" width="280" height="50" as="geometry" />
        </mxCell>
        <mxCell id="_f1k0uEWrNO9JQG6IIzU-58" value="&lt;p style=&quot;line-height: 100%;&quot;&gt;&lt;/p&gt;&lt;div style=&quot;&quot;&gt;&lt;span style=&quot;background-color: initial;&quot;&gt;&lt;b&gt;erőforrás neve (999k arany / s)&lt;/b&gt;&lt;/span&gt;&lt;/div&gt;&lt;div style=&quot;&quot;&gt;&lt;span style=&quot;background-color: initial;&quot;&gt;erőforrás leírása&lt;/span&gt;&lt;/div&gt;&lt;p&gt;&lt;/p&gt;" style="text;strokeColor=none;fillColor=none;align=right;verticalAlign=middle;rounded=0;fontSize=22;fontStyle=0;spacingLeft=0;html=1;horizontal=1;" vertex="1" parent="IvCPL0VLkoYU5I1dA0V2-1">
          <mxGeometry x="45" y="405" width="280" height="50" as="geometry" />
        </mxCell>
        <mxCell id="_f1k0uEWrNO9JQG6IIzU-59" value="&lt;p style=&quot;line-height: 100%;&quot;&gt;&lt;/p&gt;&lt;div style=&quot;&quot;&gt;&lt;span style=&quot;background-color: initial;&quot;&gt;&lt;b&gt;???&lt;/b&gt;&lt;/span&gt;&lt;/div&gt;&lt;div style=&quot;&quot;&gt;&lt;span style=&quot;background-color: initial;&quot;&gt;???&lt;/span&gt;&lt;/div&gt;&lt;p&gt;&lt;/p&gt;" style="text;strokeColor=none;fillColor=none;align=right;verticalAlign=middle;rounded=0;fontSize=22;fontStyle=0;spacingLeft=0;html=1;horizontal=1;" vertex="1" parent="IvCPL0VLkoYU5I1dA0V2-1">
          <mxGeometry x="45" y="480" width="280" height="50" as="geometry" />
        </mxCell>
        <mxCell id="_f1k0uEWrNO9JQG6IIzU-60" value="&lt;p style=&quot;line-height: 100%;&quot;&gt;&lt;/p&gt;&lt;div style=&quot;&quot;&gt;&lt;span style=&quot;background-color: initial;&quot;&gt;&lt;b&gt;???&lt;/b&gt;&lt;/span&gt;&lt;/div&gt;&lt;div style=&quot;&quot;&gt;&lt;span style=&quot;background-color: initial;&quot;&gt;???&lt;/span&gt;&lt;/div&gt;&lt;p&gt;&lt;/p&gt;" style="text;strokeColor=none;fillColor=none;align=right;verticalAlign=middle;rounded=0;fontSize=22;fontStyle=0;spacingLeft=0;html=1;horizontal=1;" vertex="1" parent="IvCPL0VLkoYU5I1dA0V2-1">
          <mxGeometry x="45" y="560" width="280" height="50" as="geometry" />
        </mxCell>
        <mxCell id="_f1k0uEWrNO9JQG6IIzU-61" value="&lt;font style=&quot;font-size: 22px;&quot;&gt;123 456K&amp;nbsp;per click&lt;br&gt;123 456K per mp&lt;br&gt;&lt;/font&gt;" style="text;html=1;strokeColor=none;fillColor=none;align=center;verticalAlign=middle;whiteSpace=wrap;rounded=0;fontStyle=1;fontSize=42;" vertex="1" parent="IvCPL0VLkoYU5I1dA0V2-1">
          <mxGeometry x="535" y="520" width="330" height="140" as="geometry" />
        </mxCell>
      </root>
    </mxGraphModel>
  </diagram>
</mxfile>
